<mxfile host="app.diagrams.net" modified="2023-07-13T10:00:17.217Z" agent="Mozilla/5.0 (Windows NT 10.0; Win64; x64) AppleWebKit/537.36 (KHTML, like Gecko) Chrome/114.0.0.0 Safari/537.36" etag="f_IqyeCrOfdLBSgOrP4U" version="21.6.2" type="device">
  <diagram id="v_xXoayS2Bh0O8Ja2Hev" name="Page-1">
    <mxGraphModel dx="2021" dy="543" grid="1" gridSize="10" guides="1" tooltips="1" connect="1" arrows="1" fold="1" page="1" pageScale="1" pageWidth="850" pageHeight="1100" math="0" shadow="0">
      <root>
        <mxCell id="0" />
        <mxCell id="1" parent="0" />
        <mxCell id="MRr0I5C874BZHX6iCrD_-61" value="" style="rounded=0;whiteSpace=wrap;html=1;fillColor=none;" parent="1" vertex="1">
          <mxGeometry x="-704" y="160" width="1944" height="1120" as="geometry" />
        </mxCell>
        <mxCell id="MRr0I5C874BZHX6iCrD_-38" value="AWS Infrastructure" style="points=[[0,0],[0.25,0],[0.5,0],[0.75,0],[1,0],[1,0.25],[1,0.5],[1,0.75],[1,1],[0.75,1],[0.5,1],[0.25,1],[0,1],[0,0.75],[0,0.5],[0,0.25]];outlineConnect=0;html=1;whiteSpace=wrap;fontSize=12;fontStyle=0;shape=mxgraph.aws4.group;grIcon=mxgraph.aws4.group_aws_cloud;strokeColor=#666666;verticalAlign=top;align=left;spacingLeft=30;fontColor=#333333;dashed=0;fillColor=#DEDEDE;" parent="1" vertex="1">
          <mxGeometry x="-90" y="190" width="1290" height="1060" as="geometry" />
        </mxCell>
        <mxCell id="MRr0I5C874BZHX6iCrD_-1" value="Altitude Managed Cloud Services Infrastructure" style="points=[[0,0],[0.25,0],[0.5,0],[0.75,0],[1,0],[1,0.25],[1,0.5],[1,0.75],[1,1],[0.75,1],[0.5,1],[0.25,1],[0,1],[0,0.75],[0,0.5],[0,0.25]];outlineConnect=0;html=1;whiteSpace=wrap;fontSize=12;fontStyle=0;shape=mxgraph.aws4.group;grIcon=mxgraph.aws4.group_aws_cloud_alt;strokeColor=#6c8ebf;fillColor=#dae8fc;verticalAlign=top;align=left;spacingLeft=30;dashed=0;" parent="1" vertex="1">
          <mxGeometry x="30" y="230" width="470" height="880" as="geometry" />
        </mxCell>
        <mxCell id="MRr0I5C874BZHX6iCrD_-4" value="Common Services" style="points=[[0,0],[0.25,0],[0.5,0],[0.75,0],[1,0],[1,0.25],[1,0.5],[1,0.75],[1,1],[0.75,1],[0.5,1],[0.25,1],[0,1],[0,0.75],[0,0.5],[0,0.25]];outlineConnect=0;html=1;whiteSpace=wrap;fontSize=12;fontStyle=0;shape=mxgraph.aws4.group;grIcon=mxgraph.aws4.group_aws_cloud_alt;strokeColor=#82b366;fillColor=#d5e8d4;verticalAlign=top;align=left;spacingLeft=30;dashed=0;" parent="1" vertex="1">
          <mxGeometry x="40" y="284" width="460" height="276" as="geometry" />
        </mxCell>
        <mxCell id="MRr0I5C874BZHX6iCrD_-3" value="Federation&lt;br&gt;Services" style="points=[[0,0,0],[0.25,0,0],[0.5,0,0],[0.75,0,0],[1,0,0],[0,1,0],[0.25,1,0],[0.5,1,0],[0.75,1,0],[1,1,0],[0,0.25,0],[0,0.5,0],[0,0.75,0],[1,0.25,0],[1,0.5,0],[1,0.75,0]];outlineConnect=0;fontColor=#232F3E;gradientColor=#F78E04;gradientDirection=north;fillColor=#D05C17;strokeColor=#ffffff;dashed=0;verticalLabelPosition=bottom;verticalAlign=top;align=center;html=1;fontSize=12;fontStyle=0;aspect=fixed;shape=mxgraph.aws4.resourceIcon;resIcon=mxgraph.aws4.ec2;" parent="1" vertex="1">
          <mxGeometry x="231" y="323" width="78" height="78" as="geometry" />
        </mxCell>
        <mxCell id="MRr0I5C874BZHX6iCrD_-9" style="edgeStyle=orthogonalEdgeStyle;rounded=0;orthogonalLoop=1;jettySize=auto;html=1;startArrow=classic;startFill=1;entryX=0.761;entryY=0.855;entryDx=0;entryDy=0;entryPerimeter=0;" parent="1" source="MRr0I5C874BZHX6iCrD_-5" target="MRr0I5C874BZHX6iCrD_-4" edge="1">
          <mxGeometry relative="1" as="geometry">
            <Array as="points">
              <mxPoint x="310" y="678" />
              <mxPoint x="310" y="520" />
            </Array>
          </mxGeometry>
        </mxCell>
        <mxCell id="MRr0I5C874BZHX6iCrD_-5" value="Workspaces" style="points=[[0,0],[0.25,0],[0.5,0],[0.75,0],[1,0],[1,0.25],[1,0.5],[1,0.75],[1,1],[0.75,1],[0.5,1],[0.25,1],[0,1],[0,0.75],[0,0.5],[0,0.25]];outlineConnect=0;html=1;whiteSpace=wrap;fontSize=12;fontStyle=0;shape=mxgraph.aws4.group;grIcon=mxgraph.aws4.group_aws_cloud_alt;strokeColor=#d6b656;fillColor=#fff2cc;verticalAlign=top;align=left;spacingLeft=30;dashed=0;" parent="1" vertex="1">
          <mxGeometry x="50" y="600" width="140" height="170" as="geometry" />
        </mxCell>
        <mxCell id="MRr0I5C874BZHX6iCrD_-21" style="edgeStyle=orthogonalEdgeStyle;rounded=0;orthogonalLoop=1;jettySize=auto;html=1;entryX=1;entryY=0.75;entryDx=0;entryDy=0;entryPerimeter=0;startArrow=classic;startFill=1;" parent="1" source="MRr0I5C874BZHX6iCrD_-7" target="MRr0I5C874BZHX6iCrD_-19" edge="1">
          <mxGeometry relative="1" as="geometry">
            <Array as="points">
              <mxPoint x="441" y="470" />
              <mxPoint x="200" y="470" />
              <mxPoint x="200" y="382" />
            </Array>
            <mxPoint x="360" y="470" as="sourcePoint" />
          </mxGeometry>
        </mxCell>
        <mxCell id="MRr0I5C874BZHX6iCrD_-7" value="Transit Gateway" style="points=[[0,0,0],[0.25,0,0],[0.5,0,0],[0.75,0,0],[1,0,0],[0,1,0],[0.25,1,0],[0.5,1,0],[0.75,1,0],[1,1,0],[0,0.25,0],[0,0.5,0],[0,0.75,0],[1,0.25,0],[1,0.5,0],[1,0.75,0]];outlineConnect=0;fontColor=#232F3E;gradientColor=#945DF2;gradientDirection=north;fillColor=#5A30B5;strokeColor=#ffffff;dashed=0;verticalLabelPosition=bottom;verticalAlign=top;align=center;html=1;fontSize=12;fontStyle=0;aspect=fixed;shape=mxgraph.aws4.resourceIcon;resIcon=mxgraph.aws4.transit_gateway;" parent="1" vertex="1">
          <mxGeometry x="402" y="461" width="78" height="78" as="geometry" />
        </mxCell>
        <mxCell id="MRr0I5C874BZHX6iCrD_-10" value="Customer Infrastructure" style="points=[[0,0],[0.25,0],[0.5,0],[0.75,0],[1,0],[1,0.25],[1,0.5],[1,0.75],[1,1],[0.75,1],[0.5,1],[0.25,1],[0,1],[0,0.75],[0,0.5],[0,0.25]];outlineConnect=0;html=1;whiteSpace=wrap;fontSize=12;fontStyle=0;shape=mxgraph.aws4.group;grIcon=mxgraph.aws4.group_aws_cloud_alt;strokeColor=#b85450;fillColor=#f8cecc;verticalAlign=top;align=left;spacingLeft=30;dashed=0;" parent="1" vertex="1">
          <mxGeometry x="670" y="230" width="510" height="540" as="geometry" />
        </mxCell>
        <mxCell id="MRr0I5C874BZHX6iCrD_-25" style="edgeStyle=orthogonalEdgeStyle;rounded=0;orthogonalLoop=1;jettySize=auto;html=1;exitX=1;exitY=0.5;exitDx=0;exitDy=0;entryX=0;entryY=0.5;entryDx=0;entryDy=0;startArrow=classic;startFill=1;" parent="1" source="MRr0I5C874BZHX6iCrD_-11" target="MRr0I5C874BZHX6iCrD_-23" edge="1">
          <mxGeometry relative="1" as="geometry" />
        </mxCell>
        <mxCell id="MRr0I5C874BZHX6iCrD_-11" value="Common Services" style="points=[[0,0],[0.25,0],[0.5,0],[0.75,0],[1,0],[1,0.25],[1,0.5],[1,0.75],[1,1],[0.75,1],[0.5,1],[0.25,1],[0,1],[0,0.75],[0,0.5],[0,0.25]];outlineConnect=0;html=1;whiteSpace=wrap;fontSize=12;fontStyle=0;shape=mxgraph.aws4.group;grIcon=mxgraph.aws4.group_aws_cloud_alt;strokeColor=#82b366;fillColor=#d5e8d4;verticalAlign=top;align=left;spacingLeft=30;dashed=0;" parent="1" vertex="1">
          <mxGeometry x="700" y="284" width="140" height="156" as="geometry" />
        </mxCell>
        <mxCell id="MRr0I5C874BZHX6iCrD_-12" value="Transit Gateway" style="points=[[0,0,0],[0.25,0,0],[0.5,0,0],[0.75,0,0],[1,0,0],[0,1,0],[0.25,1,0],[0.5,1,0],[0.75,1,0],[1,1,0],[0,0.25,0],[0,0.5,0],[0,0.75,0],[1,0.25,0],[1,0.5,0],[1,0.75,0]];outlineConnect=0;fontColor=#232F3E;gradientColor=#945DF2;gradientDirection=north;fillColor=#5A30B5;strokeColor=#ffffff;dashed=0;verticalLabelPosition=bottom;verticalAlign=top;align=center;html=1;fontSize=12;fontStyle=0;aspect=fixed;shape=mxgraph.aws4.resourceIcon;resIcon=mxgraph.aws4.transit_gateway;" parent="1" vertex="1">
          <mxGeometry x="731" y="330" width="78" height="78" as="geometry" />
        </mxCell>
        <mxCell id="MRr0I5C874BZHX6iCrD_-14" value="Domain &lt;br&gt;Services" style="points=[[0,0,0],[0.25,0,0],[0.5,0,0],[0.75,0,0],[1,0,0],[0,1,0],[0.25,1,0],[0.5,1,0],[0.75,1,0],[1,1,0],[0,0.25,0],[0,0.5,0],[0,0.75,0],[1,0.25,0],[1,0.5,0],[1,0.75,0]];outlineConnect=0;fontColor=#232F3E;gradientColor=#F54749;gradientDirection=north;fillColor=#C7131F;strokeColor=#ffffff;dashed=0;verticalLabelPosition=bottom;verticalAlign=top;align=center;html=1;fontSize=12;fontStyle=0;aspect=fixed;shape=mxgraph.aws4.resourceIcon;resIcon=mxgraph.aws4.directory_service;" parent="1" vertex="1">
          <mxGeometry x="320" y="323" width="78" height="78" as="geometry" />
        </mxCell>
        <mxCell id="MRr0I5C874BZHX6iCrD_-17" value="Authentication&lt;br&gt;Services" style="points=[[0,0,0],[0.25,0,0],[0.5,0,0],[0.75,0,0],[1,0,0],[0,1,0],[0.25,1,0],[0.5,1,0],[0.75,1,0],[1,1,0],[0,0.25,0],[0,0.5,0],[0,0.75,0],[1,0.25,0],[1,0.5,0],[1,0.75,0]];outlineConnect=0;fontColor=#232F3E;gradientColor=#F78E04;gradientDirection=north;fillColor=#D05C17;strokeColor=#ffffff;dashed=0;verticalLabelPosition=bottom;verticalAlign=top;align=center;html=1;fontSize=12;fontStyle=0;aspect=fixed;shape=mxgraph.aws4.resourceIcon;resIcon=mxgraph.aws4.ec2;" parent="1" vertex="1">
          <mxGeometry x="410" y="323" width="78" height="78" as="geometry" />
        </mxCell>
        <mxCell id="MRr0I5C874BZHX6iCrD_-39" style="edgeStyle=orthogonalEdgeStyle;rounded=0;orthogonalLoop=1;jettySize=auto;html=1;entryX=1;entryY=0.7;entryDx=0;entryDy=0;entryPerimeter=0;startArrow=classic;startFill=1;" parent="1" source="MRr0I5C874BZHX6iCrD_-19" target="MRr0I5C874BZHX6iCrD_-36" edge="1">
          <mxGeometry relative="1" as="geometry">
            <Array as="points">
              <mxPoint x="-10" y="362" />
              <mxPoint x="-10" y="485" />
            </Array>
          </mxGeometry>
        </mxCell>
        <mxCell id="MRr0I5C874BZHX6iCrD_-19" value="PaloAlto" style="points=[[0,0,0],[0.25,0,0],[0.5,0,0],[0.75,0,0],[1,0,0],[0,1,0],[0.25,1,0],[0.5,1,0],[0.75,1,0],[1,1,0],[0,0.25,0],[0,0.5,0],[0,0.75,0],[1,0.25,0],[1,0.5,0],[1,0.75,0]];outlineConnect=0;fontColor=#232F3E;gradientColor=#F54749;gradientDirection=north;fillColor=#C7131F;strokeColor=#ffffff;dashed=0;verticalLabelPosition=bottom;verticalAlign=top;align=center;html=1;fontSize=12;fontStyle=0;aspect=fixed;shape=mxgraph.aws4.resourceIcon;resIcon=mxgraph.aws4.firewall_manager;" parent="1" vertex="1">
          <mxGeometry x="50" y="323" width="78" height="78" as="geometry" />
        </mxCell>
        <mxCell id="MRr0I5C874BZHX6iCrD_-22" style="edgeStyle=orthogonalEdgeStyle;rounded=0;orthogonalLoop=1;jettySize=auto;html=1;exitX=1;exitY=0.5;exitDx=0;exitDy=0;exitPerimeter=0;entryX=1;entryY=1;entryDx=0;entryDy=0;entryPerimeter=0;startArrow=classic;startFill=1;" parent="1" source="MRr0I5C874BZHX6iCrD_-20" target="MRr0I5C874BZHX6iCrD_-19" edge="1">
          <mxGeometry relative="1" as="geometry">
            <Array as="points">
              <mxPoint x="150" y="479" />
              <mxPoint x="150" y="420" />
              <mxPoint x="128" y="421" />
            </Array>
          </mxGeometry>
        </mxCell>
        <mxCell id="MRr0I5C874BZHX6iCrD_-20" value="VPN&lt;br&gt;Services" style="points=[[0,0,0],[0.25,0,0],[0.5,0,0],[0.75,0,0],[1,0,0],[0,1,0],[0.25,1,0],[0.5,1,0],[0.75,1,0],[1,1,0],[0,0.25,0],[0,0.5,0],[0,0.75,0],[1,0.25,0],[1,0.5,0],[1,0.75,0]];outlineConnect=0;fontColor=#232F3E;gradientColor=#F78E04;gradientDirection=north;fillColor=#D05C17;strokeColor=#ffffff;dashed=0;verticalLabelPosition=bottom;verticalAlign=top;align=center;html=1;fontSize=12;fontStyle=0;aspect=fixed;shape=mxgraph.aws4.resourceIcon;resIcon=mxgraph.aws4.ec2;" parent="1" vertex="1">
          <mxGeometry x="50" y="440" width="78" height="78" as="geometry" />
        </mxCell>
        <mxCell id="MRr0I5C874BZHX6iCrD_-23" value="Workspaces" style="points=[[0,0],[0.25,0],[0.5,0],[0.75,0],[1,0],[1,0.25],[1,0.5],[1,0.75],[1,1],[0.75,1],[0.5,1],[0.25,1],[0,1],[0,0.75],[0,0.5],[0,0.25]];outlineConnect=0;html=1;whiteSpace=wrap;fontSize=12;fontStyle=0;shape=mxgraph.aws4.group;grIcon=mxgraph.aws4.group_aws_cloud_alt;strokeColor=#d6b656;fillColor=#fff2cc;verticalAlign=top;align=left;spacingLeft=30;dashed=0;" parent="1" vertex="1">
          <mxGeometry x="870" y="284" width="140" height="156" as="geometry" />
        </mxCell>
        <mxCell id="MRr0I5C874BZHX6iCrD_-24" value="Customer Workspaces" style="points=[[0,0,0],[0.25,0,0],[0.5,0,0],[0.75,0,0],[1,0,0],[0,1,0],[0.25,1,0],[0.5,1,0],[0.75,1,0],[1,1,0],[0,0.25,0],[0,0.5,0],[0,0.75,0],[1,0.25,0],[1,0.5,0],[1,0.75,0]];outlineConnect=0;fontColor=#232F3E;gradientColor=#4AB29A;gradientDirection=north;fillColor=#116D5B;strokeColor=#ffffff;dashed=0;verticalLabelPosition=bottom;verticalAlign=top;align=center;html=1;fontSize=12;fontStyle=0;aspect=fixed;shape=mxgraph.aws4.resourceIcon;resIcon=mxgraph.aws4.workspaces;" parent="1" vertex="1">
          <mxGeometry x="901" y="323" width="78" height="78" as="geometry" />
        </mxCell>
        <mxCell id="MRr0I5C874BZHX6iCrD_-26" value="Customer Managed&lt;br&gt;Projects" style="points=[[0,0],[0.25,0],[0.5,0],[0.75,0],[1,0],[1,0.25],[1,0.5],[1,0.75],[1,1],[0.75,1],[0.5,1],[0.25,1],[0,1],[0,0.75],[0,0.5],[0,0.25]];outlineConnect=0;html=1;whiteSpace=wrap;fontSize=12;fontStyle=0;shape=mxgraph.aws4.group;grIcon=mxgraph.aws4.group_aws_cloud_alt;strokeColor=#9673a6;fillColor=#e1d5e7;verticalAlign=top;align=left;spacingLeft=30;dashed=0;" parent="1" vertex="1">
          <mxGeometry x="690" y="510" width="420" height="230" as="geometry" />
        </mxCell>
        <mxCell id="MRr0I5C874BZHX6iCrD_-40" style="edgeStyle=orthogonalEdgeStyle;rounded=0;orthogonalLoop=1;jettySize=auto;html=1;exitX=0.5;exitY=0;exitDx=0;exitDy=0;startArrow=classic;startFill=1;" parent="1" source="MRr0I5C874BZHX6iCrD_-27" target="MRr0I5C874BZHX6iCrD_-11" edge="1">
          <mxGeometry relative="1" as="geometry">
            <Array as="points">
              <mxPoint x="780" y="560" />
              <mxPoint x="840" y="560" />
              <mxPoint x="840" y="480" />
              <mxPoint x="810" y="480" />
            </Array>
          </mxGeometry>
        </mxCell>
        <mxCell id="MRr0I5C874BZHX6iCrD_-27" value="AWS Accounts" style="points=[[0,0],[0.25,0],[0.5,0],[0.75,0],[1,0],[1,0.25],[1,0.5],[1,0.75],[1,1],[0.75,1],[0.5,1],[0.25,1],[0,1],[0,0.75],[0,0.5],[0,0.25]];outlineConnect=0;html=1;whiteSpace=wrap;fontSize=12;fontStyle=0;shape=mxgraph.aws4.group;grIcon=mxgraph.aws4.group_aws_cloud_alt;strokeColor=#d79b00;fillColor=#ffe6cc;verticalAlign=top;align=left;spacingLeft=30;dashed=0;" parent="1" vertex="1">
          <mxGeometry x="721" y="580" width="119" height="130" as="geometry" />
        </mxCell>
        <mxCell id="MRr0I5C874BZHX6iCrD_-28" value="" style="points=[[0,0,0],[0.25,0,0],[0.5,0,0],[0.75,0,0],[1,0,0],[0,1,0],[0.25,1,0],[0.5,1,0],[0.75,1,0],[1,1,0],[0,0.25,0],[0,0.5,0],[0,0.75,0],[1,0.25,0],[1,0.5,0],[1,0.75,0]];outlineConnect=0;fontColor=#232F3E;gradientColor=#F78E04;gradientDirection=north;fillColor=#D05C17;strokeColor=#ffffff;dashed=0;verticalLabelPosition=bottom;verticalAlign=top;align=center;html=1;fontSize=12;fontStyle=0;aspect=fixed;shape=mxgraph.aws4.resourceIcon;resIcon=mxgraph.aws4.ec2;" parent="1" vertex="1">
          <mxGeometry x="764.5" y="635.5" width="32" height="32" as="geometry" />
        </mxCell>
        <mxCell id="MRr0I5C874BZHX6iCrD_-41" style="edgeStyle=orthogonalEdgeStyle;rounded=0;orthogonalLoop=1;jettySize=auto;html=1;exitX=0.5;exitY=0;exitDx=0;exitDy=0;entryX=0.5;entryY=1;entryDx=0;entryDy=0;startArrow=classic;startFill=1;" parent="1" source="MRr0I5C874BZHX6iCrD_-31" target="MRr0I5C874BZHX6iCrD_-11" edge="1">
          <mxGeometry relative="1" as="geometry">
            <Array as="points">
              <mxPoint x="910" y="480" />
              <mxPoint x="770" y="480" />
            </Array>
          </mxGeometry>
        </mxCell>
        <mxCell id="MRr0I5C874BZHX6iCrD_-31" value="AWS Accounts&lt;br&gt;" style="points=[[0,0],[0.25,0],[0.5,0],[0.75,0],[1,0],[1,0.25],[1,0.5],[1,0.75],[1,1],[0.75,1],[0.5,1],[0.25,1],[0,1],[0,0.75],[0,0.5],[0,0.25]];outlineConnect=0;html=1;whiteSpace=wrap;fontSize=12;fontStyle=0;shape=mxgraph.aws4.group;grIcon=mxgraph.aws4.group_aws_cloud_alt;strokeColor=#d79b00;fillColor=#ffe6cc;verticalAlign=top;align=left;spacingLeft=30;dashed=0;" parent="1" vertex="1">
          <mxGeometry x="850" y="580" width="119" height="130" as="geometry" />
        </mxCell>
        <mxCell id="MRr0I5C874BZHX6iCrD_-32" value="" style="points=[[0,0,0],[0.25,0,0],[0.5,0,0],[0.75,0,0],[1,0,0],[0,1,0],[0.25,1,0],[0.5,1,0],[0.75,1,0],[1,1,0],[0,0.25,0],[0,0.5,0],[0,0.75,0],[1,0.25,0],[1,0.5,0],[1,0.75,0]];outlineConnect=0;fontColor=#232F3E;gradientColor=#F78E04;gradientDirection=north;fillColor=#D05C17;strokeColor=#ffffff;dashed=0;verticalLabelPosition=bottom;verticalAlign=top;align=center;html=1;fontSize=12;fontStyle=0;aspect=fixed;shape=mxgraph.aws4.resourceIcon;resIcon=mxgraph.aws4.ec2;" parent="1" vertex="1">
          <mxGeometry x="883.75" y="635" width="32.5" height="32.5" as="geometry" />
        </mxCell>
        <mxCell id="MRr0I5C874BZHX6iCrD_-42" style="edgeStyle=orthogonalEdgeStyle;rounded=0;orthogonalLoop=1;jettySize=auto;html=1;exitX=0.5;exitY=0;exitDx=0;exitDy=0;entryX=0.25;entryY=1;entryDx=0;entryDy=0;startArrow=classic;startFill=1;" parent="1" source="MRr0I5C874BZHX6iCrD_-33" target="MRr0I5C874BZHX6iCrD_-11" edge="1">
          <mxGeometry relative="1" as="geometry">
            <Array as="points">
              <mxPoint x="1040" y="480" />
              <mxPoint x="735" y="480" />
            </Array>
          </mxGeometry>
        </mxCell>
        <mxCell id="MRr0I5C874BZHX6iCrD_-33" value="AWS Accounts" style="points=[[0,0],[0.25,0],[0.5,0],[0.75,0],[1,0],[1,0.25],[1,0.5],[1,0.75],[1,1],[0.75,1],[0.5,1],[0.25,1],[0,1],[0,0.75],[0,0.5],[0,0.25]];outlineConnect=0;html=1;whiteSpace=wrap;fontSize=12;fontStyle=0;shape=mxgraph.aws4.group;grIcon=mxgraph.aws4.group_aws_cloud_alt;strokeColor=#fafbff;fillColor=#ffe6cc;verticalAlign=top;align=left;spacingLeft=30;dashed=0;" parent="1" vertex="1">
          <mxGeometry x="980" y="580" width="119" height="130" as="geometry" />
        </mxCell>
        <mxCell id="MRr0I5C874BZHX6iCrD_-52" style="edgeStyle=orthogonalEdgeStyle;rounded=0;orthogonalLoop=1;jettySize=auto;html=1;entryX=0.75;entryY=1;entryDx=0;entryDy=0;startArrow=classic;startFill=1;" parent="1" edge="1">
          <mxGeometry relative="1" as="geometry">
            <mxPoint x="-245.990291262136" y="408" as="sourcePoint" />
            <mxPoint x="-244.86249999999995" y="295" as="targetPoint" />
            <Array as="points">
              <mxPoint x="-245" y="408" />
              <mxPoint x="-245" y="352" />
            </Array>
          </mxGeometry>
        </mxCell>
        <mxCell id="MRr0I5C874BZHX6iCrD_-36" value="Internet" style="outlineConnect=0;dashed=0;verticalLabelPosition=bottom;verticalAlign=top;align=left;html=1;shape=mxgraph.aws3.internet_2;fillColor=#D2D3D3;gradientColor=none;labelPosition=right;" parent="1" vertex="1">
          <mxGeometry x="-350" y="408" width="210" height="110" as="geometry" />
        </mxCell>
        <mxCell id="MRr0I5C874BZHX6iCrD_-44" value="" style="shape=image;imageAspect=0;aspect=fixed;verticalLabelPosition=bottom;verticalAlign=top;image=https://logos-world.net/wp-content/uploads/2021/04/Okta-Logo-700x394.png;" parent="1" vertex="1">
          <mxGeometry x="-357" y="210" width="150.85" height="85" as="geometry" />
        </mxCell>
        <mxCell id="MRr0I5C874BZHX6iCrD_-48" style="edgeStyle=orthogonalEdgeStyle;rounded=0;orthogonalLoop=1;jettySize=auto;html=1;entryX=0.5;entryY=1;entryDx=0;entryDy=0;entryPerimeter=0;startArrow=classic;startFill=1;" parent="1" source="MRr0I5C874BZHX6iCrD_-47" target="MRr0I5C874BZHX6iCrD_-36" edge="1">
          <mxGeometry relative="1" as="geometry" />
        </mxCell>
        <mxCell id="MRr0I5C874BZHX6iCrD_-47" value="" style="shape=image;imageAspect=0;aspect=fixed;verticalLabelPosition=bottom;verticalAlign=top;image=https://www.blumira.com/wp-content/uploads/2020/03/crowdstrike-logo.png;" parent="1" vertex="1">
          <mxGeometry x="-378.33" y="635" width="266.67" height="100" as="geometry" />
        </mxCell>
        <mxCell id="MRr0I5C874BZHX6iCrD_-50" value="" style="points=[[0,0,0],[0.25,0,0],[0.5,0,0],[0.75,0,0],[1,0,0],[0,1,0],[0.25,1,0],[0.5,1,0],[0.75,1,0],[1,1,0],[0,0.25,0],[0,0.5,0],[0,0.75,0],[1,0.25,0],[1,0.5,0],[1,0.75,0]];outlineConnect=0;fontColor=#232F3E;gradientColor=#4AB29A;gradientDirection=north;fillColor=#116D5B;strokeColor=#ffffff;dashed=0;verticalLabelPosition=bottom;verticalAlign=top;align=center;html=1;fontSize=12;fontStyle=0;aspect=fixed;shape=mxgraph.aws4.resourceIcon;resIcon=mxgraph.aws4.workspaces;" parent="1" vertex="1">
          <mxGeometry x="81" y="646" width="78" height="78" as="geometry" />
        </mxCell>
        <mxCell id="MRr0I5C874BZHX6iCrD_-59" style="edgeStyle=orthogonalEdgeStyle;rounded=0;orthogonalLoop=1;jettySize=auto;html=1;entryX=0;entryY=0.7;entryDx=0;entryDy=0;entryPerimeter=0;startArrow=classic;startFill=1;" parent="1" target="MRr0I5C874BZHX6iCrD_-36" edge="1">
          <mxGeometry relative="1" as="geometry">
            <mxPoint x="-476" y="455.252427184466" as="sourcePoint" />
            <mxPoint x="-351.0000000000001" y="485" as="targetPoint" />
            <Array as="points">
              <mxPoint x="-430" y="455" />
              <mxPoint x="-430" y="485" />
            </Array>
          </mxGeometry>
        </mxCell>
        <mxCell id="MRr0I5C874BZHX6iCrD_-51" value="Workspaces&lt;br&gt;client" style="outlineConnect=0;dashed=0;verticalLabelPosition=bottom;verticalAlign=top;align=center;html=1;shape=mxgraph.aws3.workspaces;fillColor=#D16A28;gradientColor=#F58435;gradientDirection=north;" parent="1" vertex="1">
          <mxGeometry x="-557.5" y="408" width="82.5" height="94.5" as="geometry" />
        </mxCell>
        <mxCell id="MRr0I5C874BZHX6iCrD_-57" style="edgeStyle=orthogonalEdgeStyle;rounded=0;orthogonalLoop=1;jettySize=auto;html=1;entryX=0;entryY=0.5;entryDx=0;entryDy=0;entryPerimeter=0;startArrow=classic;startFill=1;" parent="1" source="MRr0I5C874BZHX6iCrD_-53" target="MRr0I5C874BZHX6iCrD_-51" edge="1">
          <mxGeometry relative="1" as="geometry" />
        </mxCell>
        <mxCell id="MRr0I5C874BZHX6iCrD_-58" style="edgeStyle=orthogonalEdgeStyle;rounded=0;orthogonalLoop=1;jettySize=auto;html=1;startArrow=classic;startFill=1;" parent="1" source="MRr0I5C874BZHX6iCrD_-53" target="MRr0I5C874BZHX6iCrD_-55" edge="1">
          <mxGeometry relative="1" as="geometry">
            <Array as="points">
              <mxPoint x="-590" y="582" />
              <mxPoint x="-590" y="681" />
            </Array>
          </mxGeometry>
        </mxCell>
        <mxCell id="MRr0I5C874BZHX6iCrD_-53" value="Boeing user&lt;br&gt;Endpoint" style="outlineConnect=0;fontColor=#232F3E;gradientColor=none;fillColor=#232F3E;strokeColor=none;dashed=0;verticalLabelPosition=bottom;verticalAlign=top;align=center;html=1;fontSize=12;fontStyle=0;aspect=fixed;pointerEvents=1;shape=mxgraph.aws4.client;" parent="1" vertex="1">
          <mxGeometry x="-700" y="544" width="78" height="76" as="geometry" />
        </mxCell>
        <mxCell id="MRr0I5C874BZHX6iCrD_-60" style="edgeStyle=orthogonalEdgeStyle;rounded=0;orthogonalLoop=1;jettySize=auto;html=1;entryX=0;entryY=0.7;entryDx=0;entryDy=0;entryPerimeter=0;startArrow=classic;startFill=1;" parent="1" source="MRr0I5C874BZHX6iCrD_-55" target="MRr0I5C874BZHX6iCrD_-36" edge="1">
          <mxGeometry relative="1" as="geometry">
            <Array as="points">
              <mxPoint x="-430" y="681" />
              <mxPoint x="-430" y="485" />
            </Array>
          </mxGeometry>
        </mxCell>
        <mxCell id="MRr0I5C874BZHX6iCrD_-55" value="OpenVPN&lt;br&gt;client" style="pointerEvents=1;shadow=0;dashed=0;html=1;strokeColor=none;fillColor=#DF8C42;labelPosition=center;verticalLabelPosition=bottom;verticalAlign=top;align=center;outlineConnect=0;shape=mxgraph.veeam2.open_vpn;" parent="1" vertex="1">
          <mxGeometry x="-557.5" y="642" width="80" height="78" as="geometry" />
        </mxCell>
        <mxCell id="MRr0I5C874BZHX6iCrD_-62" value="&lt;font size=&quot;1&quot;&gt;&lt;b style=&quot;font-size: 30px&quot;&gt;Altitude Managed Cloud Functional Overview&lt;/b&gt;&lt;/font&gt;" style="text;html=1;strokeColor=none;fillColor=none;align=center;verticalAlign=middle;whiteSpace=wrap;rounded=0;" parent="1" vertex="1">
          <mxGeometry x="-82" y="110" width="570" height="20" as="geometry" />
        </mxCell>
        <mxCell id="MRr0I5C874BZHX6iCrD_-13" style="edgeStyle=orthogonalEdgeStyle;rounded=0;orthogonalLoop=1;jettySize=auto;html=1;exitX=1;exitY=0.5;exitDx=0;exitDy=0;exitPerimeter=0;entryX=0;entryY=0.5;entryDx=0;entryDy=0;startArrow=classic;startFill=1;" parent="1" source="MRr0I5C874BZHX6iCrD_-7" target="MRr0I5C874BZHX6iCrD_-11" edge="1">
          <mxGeometry relative="1" as="geometry" />
        </mxCell>
        <mxCell id="woHuWP1Z6_TJqvGHoFnL-5" value="" style="points=[[0,0,0],[0.25,0,0],[0.5,0,0],[0.75,0,0],[1,0,0],[0,1,0],[0.25,1,0],[0.5,1,0],[0.75,1,0],[1,1,0],[0,0.25,0],[0,0.5,0],[0,0.75,0],[1,0.25,0],[1,0.5,0],[1,0.75,0]];outlineConnect=0;fontColor=#232F3E;gradientColor=#F78E04;gradientDirection=north;fillColor=#D05C17;strokeColor=#ffffff;dashed=0;verticalLabelPosition=bottom;verticalAlign=top;align=center;html=1;fontSize=12;fontStyle=0;aspect=fixed;shape=mxgraph.aws4.resourceIcon;resIcon=mxgraph.aws4.ec2;" parent="1" vertex="1">
          <mxGeometry x="1030" y="635" width="30.5" height="30.5" as="geometry" />
        </mxCell>
        <mxCell id="ZhC6upchm-sPF2x6r8ab-1" value="Ingress Traffic" style="text;html=1;strokeColor=none;fillColor=none;align=center;verticalAlign=middle;whiteSpace=wrap;rounded=0;" parent="1" vertex="1">
          <mxGeometry x="-111.66" y="450" width="91.66" height="30" as="geometry" />
        </mxCell>
        <mxCell id="ZhC6upchm-sPF2x6r8ab-4" value="VPC" style="points=[[0,0],[0.25,0],[0.5,0],[0.75,0],[1,0],[1,0.25],[1,0.5],[1,0.75],[1,1],[0.75,1],[0.5,1],[0.25,1],[0,1],[0,0.75],[0,0.5],[0,0.25]];outlineConnect=0;gradientColor=none;html=1;whiteSpace=wrap;fontSize=12;fontStyle=0;container=1;pointerEvents=0;collapsible=0;recursiveResize=0;shape=mxgraph.aws4.group;grIcon=mxgraph.aws4.group_vpc;strokeColor=#248814;fillColor=none;verticalAlign=top;align=left;spacingLeft=30;fontColor=#AAB7B8;dashed=0;" parent="1" vertex="1">
          <mxGeometry x="40" y="820" width="440" height="230" as="geometry" />
        </mxCell>
        <mxCell id="MV3zczWjzg_rHSTGy397-5" value="Transit Gateway" style="points=[[0,0,0],[0.25,0,0],[0.5,0,0],[0.75,0,0],[1,0,0],[0,1,0],[0.25,1,0],[0.5,1,0],[0.75,1,0],[1,1,0],[0,0.25,0],[0,0.5,0],[0,0.75,0],[1,0.25,0],[1,0.5,0],[1,0.75,0]];outlineConnect=0;fontColor=#232F3E;gradientColor=#945DF2;gradientDirection=north;fillColor=#5A30B5;strokeColor=#ffffff;dashed=0;verticalLabelPosition=bottom;verticalAlign=top;align=center;html=1;fontSize=12;fontStyle=0;aspect=fixed;shape=mxgraph.aws4.resourceIcon;resIcon=mxgraph.aws4.transit_gateway;" parent="ZhC6upchm-sPF2x6r8ab-4" vertex="1">
          <mxGeometry x="340" y="10" width="78" height="78" as="geometry" />
        </mxCell>
        <mxCell id="MV3zczWjzg_rHSTGy397-2" value="Federation&lt;br&gt;Services" style="points=[[0,0,0],[0.25,0,0],[0.5,0,0],[0.75,0,0],[1,0,0],[0,1,0],[0.25,1,0],[0.5,1,0],[0.75,1,0],[1,1,0],[0,0.25,0],[0,0.5,0],[0,0.75,0],[1,0.25,0],[1,0.5,0],[1,0.75,0]];outlineConnect=0;fontColor=#232F3E;gradientColor=#F78E04;gradientDirection=north;fillColor=#D05C17;strokeColor=#ffffff;dashed=0;verticalLabelPosition=bottom;verticalAlign=top;align=center;html=1;fontSize=12;fontStyle=0;aspect=fixed;shape=mxgraph.aws4.resourceIcon;resIcon=mxgraph.aws4.ec2;" parent="1" vertex="1">
          <mxGeometry x="223" y="930" width="78" height="78" as="geometry" />
        </mxCell>
        <mxCell id="MV3zczWjzg_rHSTGy397-4" value="Authentication&lt;br&gt;Services" style="points=[[0,0,0],[0.25,0,0],[0.5,0,0],[0.75,0,0],[1,0,0],[0,1,0],[0.25,1,0],[0.5,1,0],[0.75,1,0],[1,1,0],[0,0.25,0],[0,0.5,0],[0,0.75,0],[1,0.25,0],[1,0.5,0],[1,0.75,0]];outlineConnect=0;fontColor=#232F3E;gradientColor=#F78E04;gradientDirection=north;fillColor=#D05C17;strokeColor=#ffffff;dashed=0;verticalLabelPosition=bottom;verticalAlign=top;align=center;html=1;fontSize=12;fontStyle=0;aspect=fixed;shape=mxgraph.aws4.resourceIcon;resIcon=mxgraph.aws4.ec2;" parent="1" vertex="1">
          <mxGeometry x="402" y="930" width="78" height="78" as="geometry" />
        </mxCell>
        <mxCell id="MV3zczWjzg_rHSTGy397-7" value="" style="endArrow=classic;startArrow=classic;html=1;rounded=0;entryX=0.44;entryY=0.321;entryDx=0;entryDy=0;entryPerimeter=0;" parent="1" source="MV3zczWjzg_rHSTGy397-5" edge="1" target="MRr0I5C874BZHX6iCrD_-38">
          <mxGeometry width="50" height="50" relative="1" as="geometry">
            <mxPoint x="310" y="780" as="sourcePoint" />
            <mxPoint x="580" y="750" as="targetPoint" />
            <Array as="points">
              <mxPoint x="580" y="870" />
              <mxPoint x="580" y="530" />
            </Array>
          </mxGeometry>
        </mxCell>
        <mxCell id="MV3zczWjzg_rHSTGy397-9" value="AWS Other Region" style="points=[[0,0],[0.25,0],[0.5,0],[0.75,0],[1,0],[1,0.25],[1,0.5],[1,0.75],[1,1],[0.75,1],[0.5,1],[0.25,1],[0,1],[0,0.75],[0,0.5],[0,0.25]];outlineConnect=0;gradientColor=none;html=1;whiteSpace=wrap;fontSize=12;fontStyle=0;container=1;pointerEvents=0;collapsible=0;recursiveResize=0;shape=mxgraph.aws4.group;grIcon=mxgraph.aws4.group_region;strokeColor=#147EBA;fillColor=none;verticalAlign=top;align=left;spacingLeft=30;fontColor=#147EBA;dashed=1;" parent="1" vertex="1">
          <mxGeometry x="30" y="790" width="460" height="280" as="geometry" />
        </mxCell>
        <mxCell id="MV3zczWjzg_rHSTGy397-14" value="" style="image;aspect=fixed;perimeter=ellipsePerimeter;html=1;align=center;shadow=0;dashed=0;spacingTop=3;image=img/lib/active_directory/active_directory.svg;" parent="MV3zczWjzg_rHSTGy397-9" vertex="1">
          <mxGeometry x="290" y="149" width="70.59" height="60" as="geometry" />
        </mxCell>
        <mxCell id="InpOM2cUuAKNxlLhCf3V-1" value="Workspaces" style="points=[[0,0],[0.25,0],[0.5,0],[0.75,0],[1,0],[1,0.25],[1,0.5],[1,0.75],[1,1],[0.75,1],[0.5,1],[0.25,1],[0,1],[0,0.75],[0,0.5],[0,0.25]];outlineConnect=0;html=1;whiteSpace=wrap;fontSize=12;fontStyle=0;shape=mxgraph.aws4.group;grIcon=mxgraph.aws4.group_aws_cloud_alt;strokeColor=#d6b656;fillColor=#fff2cc;verticalAlign=top;align=left;spacingLeft=30;dashed=0;" vertex="1" parent="MV3zczWjzg_rHSTGy397-9">
          <mxGeometry x="30" y="70" width="130" height="120" as="geometry" />
        </mxCell>
        <mxCell id="InpOM2cUuAKNxlLhCf3V-2" value="" style="points=[[0,0,0],[0.25,0,0],[0.5,0,0],[0.75,0,0],[1,0,0],[0,1,0],[0.25,1,0],[0.5,1,0],[0.75,1,0],[1,1,0],[0,0.25,0],[0,0.5,0],[0,0.75,0],[1,0.25,0],[1,0.5,0],[1,0.75,0]];outlineConnect=0;fontColor=#232F3E;gradientColor=#4AB29A;gradientDirection=north;fillColor=#116D5B;strokeColor=#ffffff;dashed=0;verticalLabelPosition=bottom;verticalAlign=top;align=center;html=1;fontSize=12;fontStyle=0;aspect=fixed;shape=mxgraph.aws4.resourceIcon;resIcon=mxgraph.aws4.workspaces;" vertex="1" parent="MV3zczWjzg_rHSTGy397-9">
          <mxGeometry x="56" y="101" width="78" height="78" as="geometry" />
        </mxCell>
        <mxCell id="MV3zczWjzg_rHSTGy397-10" value="US Region" style="points=[[0,0],[0.25,0],[0.5,0],[0.75,0],[1,0],[1,0.25],[1,0.5],[1,0.75],[1,1],[0.75,1],[0.5,1],[0.25,1],[0,1],[0,0.75],[0,0.5],[0,0.25]];outlineConnect=0;gradientColor=none;html=1;whiteSpace=wrap;fontSize=12;fontStyle=0;container=1;pointerEvents=0;collapsible=0;recursiveResize=0;shape=mxgraph.aws4.group;grIcon=mxgraph.aws4.group_region;strokeColor=#147EBA;fillColor=none;verticalAlign=top;align=left;spacingLeft=30;fontColor=#147EBA;dashed=1;" parent="1" vertex="1">
          <mxGeometry x="40" y="300" width="450" height="280" as="geometry" />
        </mxCell>
        <mxCell id="MV3zczWjzg_rHSTGy397-12" value="Egress Traffic" style="text;html=1;strokeColor=none;fillColor=none;align=center;verticalAlign=middle;whiteSpace=wrap;rounded=0;" parent="MV3zczWjzg_rHSTGy397-10" vertex="1">
          <mxGeometry x="210" y="140.25" width="100" height="30" as="geometry" />
        </mxCell>
        <mxCell id="MV3zczWjzg_rHSTGy397-15" value="Active Directory" style="text;html=1;strokeColor=none;fillColor=none;align=center;verticalAlign=middle;whiteSpace=wrap;rounded=0;" parent="1" vertex="1">
          <mxGeometry x="320" y="1008" width="60" height="30" as="geometry" />
        </mxCell>
        <mxCell id="InpOM2cUuAKNxlLhCf3V-3" value="" style="endArrow=classic;startArrow=classic;html=1;rounded=0;exitX=0.362;exitY=0.739;exitDx=0;exitDy=0;exitPerimeter=0;" edge="1" parent="1" source="MRr0I5C874BZHX6iCrD_-1">
          <mxGeometry width="50" height="50" relative="1" as="geometry">
            <mxPoint x="180" y="869" as="sourcePoint" />
            <mxPoint x="370" y="880" as="targetPoint" />
            <Array as="points" />
          </mxGeometry>
        </mxCell>
        <mxCell id="InpOM2cUuAKNxlLhCf3V-4" value="Onprem data center" style="points=[[0,0],[0.25,0],[0.5,0],[0.75,0],[1,0],[1,0.25],[1,0.5],[1,0.75],[1,1],[0.75,1],[0.5,1],[0.25,1],[0,1],[0,0.75],[0,0.5],[0,0.25]];outlineConnect=0;gradientColor=none;html=1;whiteSpace=wrap;fontSize=12;fontStyle=0;container=1;pointerEvents=0;collapsible=0;recursiveResize=0;shape=mxgraph.aws4.group;grIcon=mxgraph.aws4.group_corporate_data_center;strokeColor=#5A6C86;fillColor=none;verticalAlign=top;align=left;spacingLeft=30;fontColor=#5A6C86;dashed=0;" vertex="1" parent="1">
          <mxGeometry x="590" y="930" width="319" height="290" as="geometry" />
        </mxCell>
        <mxCell id="InpOM2cUuAKNxlLhCf3V-7" value="" style="fontColor=#0066CC;verticalAlign=top;verticalLabelPosition=bottom;labelPosition=center;align=center;html=1;outlineConnect=0;fillColor=#CCCCCC;strokeColor=#6881B3;gradientColor=none;gradientDirection=north;strokeWidth=2;shape=mxgraph.networks.desktop_pc;" vertex="1" parent="InpOM2cUuAKNxlLhCf3V-4">
          <mxGeometry x="270" y="170" width="30" height="60" as="geometry" />
        </mxCell>
        <mxCell id="InpOM2cUuAKNxlLhCf3V-5" value="" style="outlineConnect=0;dashed=0;verticalLabelPosition=bottom;verticalAlign=top;align=center;html=1;shape=mxgraph.aws3.customer_gateway;fillColor=#F58534;gradientColor=none;" vertex="1" parent="InpOM2cUuAKNxlLhCf3V-4">
          <mxGeometry x="240.5" y="-33" width="69" height="72" as="geometry" />
        </mxCell>
        <mxCell id="InpOM2cUuAKNxlLhCf3V-6" value="" style="fontColor=#0066CC;verticalAlign=top;verticalLabelPosition=bottom;labelPosition=center;align=center;html=1;outlineConnect=0;fillColor=#CCCCCC;strokeColor=#6881B3;gradientColor=none;gradientDirection=north;strokeWidth=2;shape=mxgraph.networks.rack;" vertex="1" parent="1">
          <mxGeometry x="637" y="1080" width="50" height="100" as="geometry" />
        </mxCell>
        <mxCell id="InpOM2cUuAKNxlLhCf3V-10" value="" style="shape=image;verticalLabelPosition=bottom;labelBackgroundColor=default;verticalAlign=top;aspect=fixed;imageAspect=0;image=data:image/png,iVBORw0KGgoAAAANSUhEUgAAAGgAAABRCAYAAAA+aePEAAAOVElEQVR4nO2ce3hM1/rHP5NEbhNJEEEaShJxKVIcUreQEHU5RKTu/EKrVW1TtD91d6jj2oOKqrQ9J9S9SimKgyOIIkQRTd2CRO6IIJlMIux1/pjMJJNMJuE4Z+8/5vs888zzrvWutd5Z3/2++11r7T0qIYTAAsXCSm4DLDAPC0EKh4UghcNCkMJhI7cBZ3cVcW7XE7nNMIkOobZ0DLWT1QbZCRJCIAlJbjNMQgkJruwEIUBIEqiMyxQlywjZCRIIJCF0k2JcIbts8SB0kyD+wxDXMsCOdv0cqPuq7ucUaQRJ8UX8caKItD+KX9y2Cqz97yE/QXoPegE417Um5FNnXNytSTpXxKkdBRRpJJzrWtOquz1D5rhwfr+WYxvyX8w2iwdREkqe34Ps1CqGznXhSYFgw2c5PLr3zKj+92MFtOrhQGB4TUAQ833eC9kmN2QnSJfFPf9MBIY7owK2zMuhSGO6fUJMAZIQ9PvAhRvnCrmT+HzpvBJCnOwLVYFASBJClPlUITu7qWjV3YGT2/MozH9mVv9yjIbUP57Qvp9jtfsvlS0EGdZBkiRKP+VkW0eMZJ8OdhQVSFw6qjGpX16+FldA0w72RvW2DqpK9fWyxYMAEIZMrvRTKvcc58zEtfWxc8RQZudoRfbtYpP6puTs27rQ5lzXqqS9iolr69E60MFsexTgQQq4B1HpTsKAiDr4BTmxd3UOBflPDeXJv2t5eLe42jsQudnFnPjhEUJISEKiIF/icHQuAyLq4OxmxYkfHlVqm9yQn6ASDyqPgR+74RfkxKWj+eRmFdOoZememJBEhbKqkJygxdnNGmc3awBys4q5dDSfgOGuuLjbsCfyvknb5Ib8BFWyF9fsDUcA/IKc8Aty+q/a0OwNR6RVJrxRAS4kO0FU4kHrZ2YwdqEHD7OLWT8rg0LNy91QtVdbMXahB671arB+VoZJG5TgQbInCUIIJEl3bzB8JImMm1qiZ6bhWq8G4Qs9dJlcSb1fkBNvjq9jpF++fVnZvbGuD/cmNUoyOAgvISd6ZhoZSVqT7ZWQZsvuQUK/KWliszIzqZDo6am07eWMNq90p8DV3YYGTewQkjDSL99eD3tHK5q0dsDewQohCbT5z0i+XMCulY/JvFVUaXv56VECQZg/D0q/qSX9pta4jRBVtisLCcnwrW+z75vsahgnP0WyE0Q1drNr1atB2CceZWRbHNRWvLOkYbWGcHDSZW7933NHm6/zxNzsYnauyDBvmgJ8SHaCqrOb7eJeA682ao5suldSUvDc4ySeKt0s9fJzpH2wKz8uTzdvm8WD9Pcg8x6krz+8MeuljBlMPbxaq6sx7ksZ7j+CAgjS7X+ZO3LWT5TB00wcUXv4OBA8ph4OaituXtJweFO2Ub1xf6LK/nSy/AzJTpBuHSSZzcL0V7qQJJP1tevb8v4XXmTc0pKRpCUgzA0HJyt+/jrdpL6eoMr608uWEEf1zoMqXPHl0LKzCwBrptwAICfrCYM+eIVda9JM91fyXd1x5YT8BFF1FqfPpirT0+YX4+Bkjb1ahTb/GbXr1aBQ86zyfoX5/krHlR/yE1Sym60qcxMQCCNZv3YxhKZy9ZdiHxAQ5s6cLa1JTyrA5/Wa7FqTWql+KeGV16tQKSJLkJ0gw3lQuevVSDYkCZLJ+oI8ichJVxg93YvWXWuxevJVblx8XGl/pSHTdH96WQnrIGXsxQnjI2dTsk638vqCvGLSkjQAXLvw0Gx/ZUNmZf0p5chbdg8SQiAkgSiX5ooq0mJT+obqKvor9Ujz/SnhLiQ/QSV7aqpyEc1ILpcWV6gvkcuGrpfZn5yQnSD9c3Gi3EqxrKzPtkrTYmFS/9T+bK799rDq/iiftpvuT356FECQfi+u7HToFvLGMpRZsJqoVyG4n1HA/YyCSusNcrk0uzJ9iwdB6RM1L8GDnkeuXn8Wggw7CeaueP1E+r7uXKaecvrVl2vXtysZ2+JB1YKQpCqyLt1ETV3b9qWNmZNVWLoOqiIrlBOyE6QLcSbOl8vIV+IfMK7Dkf+yIRVlJSxU5ScI5b4CqQQXkp8goYxYbwpKsEt2glCwB8lPD6jk/q8eBVykZqGS+WVi2T1I7glQOmTfzbbAPCwEKRwWghQOC0EKh4UghcNCkMJRbYJuJaeiLSw0Knv27BnawkKeScpYaOZrNKSkVnzeWltYSFGRMv/yrEoIMyguLhbLvowSXXqHCW+/AOHtFyAmTpklkm6lCCGEWPPdBuHtFyCOxZ4RQgix98ARsWHrTnNdmkRqeqaI3rRdJCRefe62QghxMSFRvP3hVIONvQaOEt+u3yKEEOLp06fC2y9AhI58TwghRPyFBBG9abu4ey+n2v3fTkkV3n4BomNgiJAkyVA+/qNpwtsvQJyKOy/mLf7SML5ed/6SVYa5mjL9c+HtFyDmLlxhaP/Pf50Q3n4BZufMrAdt3bGHb9Zt4dWGnsyf+Qkh/Xtz6GgsH346B4BWLZoxbtQQPBq4AxC9cTvzl6x67oskOSWVhV98xdn4iy9ygTF30UqOn4xj0sS3mf1ZBI/z8lm6Moojx06iUqkYN2oI/d8MAuDYyTMs/OIrMrKq8X5QCRo38sTHqzE5D3JJupUM6LwyJvY0arUjHdq1MegGduvEmOGDaejZgA1bdzI+YhpQeqa1eftubty8bbBd91352GYJunItCYDx4cMYNTSEpfOnMTS0P74+TdAWFpLzIJeExKtoNFqiojdzM/kOAO9NmsEzSeLK9STGvv8p/kGDGDV+MvEXLlcYIy0jixVf/R2AbTv3su/gvwD4cdcv9Bkcjs/r3Rk8agJnzl0waWNaeiaJV67zWgtfIiaEM3bkWyyZP41+vQPRaHTH3wmJV7l5O4WY2NPsO3gUgEV/W8O1G7fIffiIz+Ysxj9oECEj3mXrjj0mxxnYrxcAv8adB+B8yW8J6ReMjU3phszoYaH8Zfokflj3FWq1I6lpGTx8ZPyM3pKVa81NuxHMEtTUuzEA70ZM55MZC9j9y2Emf/gOkcvm4WBvT2b2Xc5fvMyjx3k4qR0N7VydnXmcl8/wcRGcPBNPC19v4uIvMHzcRxXuETbW1qhL2trZ2WJnZ8vBI8eZMX8ZSbeS6dCuDQmJVxn97mSS71R81rpBfXfUakcSr1ynz+BwIqPWYW9nx8rFcwjp3xuE4PzFy1y9fhNbW1tsrHUvczk5OWJjY8OU6Z/z096DNPRsQFb2Peb8dbnhIimL3kHdADh+Mg6A2NPnAHizV3eTc5eekY1Go3uPycbG2lAeNrAvx0/GGYiuCmYJGjU0lLCBfQHYc+AI0/+yhM69BhMZtb6C7uhhoXg3bgTAsgUziP01Do2mgP8bEcayBTOY8uE7APzyz6Ns27nX8Hn0OI8J40YCEPrnNwkO7Mbm7bsB2PKPVWyNXs30KRMB2LF7P5d+v2Jou+PnA9jY2LB2xV9p6OlB0q1kIqPWM+a9KfQKGc2dVOM36Lr4t6dPsG5CP35/HPb2dpw8E09zX2++Xr6AFYvnGMYpDx+vxjR5tSGxp86i1RZy9Pgp1GpH/Nv7Gel9PG0e/kGDCBowAoDhYQNwUqsN9ePDh1Gndi0WLI1EqkZyZXaz1Na2Bks/n86caRH8djGRmNjTbNz2E5FR6xg5JMRsx+mZuhi/YetONmzdaSgvG9IA5s2YTONGnkZtryfpYvTrrV8D4E9tdTE+JTWdY7GnWf3N9wbdt0L60tm/PTH7tpJ0K5m4+Ets37WPxCvX2bR9F9Mmv1+pjZlZdwG4ev0mnYPDDOUpaaZfjRzYL5hVa6PZuecAt1NSGTkkxCi8Abi71aF2LVe6+LcnMKAzPbq9YVSvVjvy2eQJTJu7hC0//lypbXqYJeiTGQs4+9slvo9aQUCXjgR06UjOg1z2H4rh/MWK95OyqOWqeyVkzPDBjB42iOLipxRotbjVrkW3Th0Mei2a+ZCWnmnU9pUG9ch5kEtqeibeTRqRkqoLbW51atOnVw98fbwAsLa25vIf15g4ZRY9u3dh/swp+Hg1pmP7NvQNG0vMidNmCXJ1qQnAay18WbFoNkIIHuflY29n+h9MggO7smptNPMWfwmYDm+zp0bQvau/2bkZ1L83363fxumzv5nVgyoI8vVpwp4DRxj5zscMCe2PSgX7D8UYftTN2ylG+lbWuoj58y+HaNtGd/XvPxRDq5a+7N1/hJNn4lmzfAF9g3sYtdN7W9z5i/To1onePQNISLzK1NkL6R3UjU0lIa9n9840a+pFs6ZehrZ5+Rry8jVs3r6bjMxsOnVsZ7iHjHhrYIXfZG2lux8cPhrLmBGDqVO7FolXrvPrmfPcTkll47afCB8ZRsvmTSu0be7rTUNPD1LTMkyGt+rC2tqa2VM/YuzE/69S1+w9aHz4cCImhFPL1YWof2xi7d830b2rP99GLsHToz6qcoc5fXrqrqhPZy3Ex+tVViyaTV232kybu4STZ+IZM3wwvQK7VhjnteZNae7rzdHjpzh45BjhI8MY2LcXCYlX+dvq78jKvsekiW/TtYzn6VHTSc26r7+gb3APYmJPs2j5Gu7ez+Ht0UMZMaQiQZ392wEQFb2ZO3fS+TZyMd27+vP50lVs3PYT/n9qywfjx1Q6J6F/7g3AgD49K4Q3c7AqN1ddO3WgW+eOVbar9olqZtZdnJzU1HRSm9XTagt5UlyMi3NNQ1lqWgauri5Vts3L12BbowZ2drYAPHqcx9179/F8pQEO9vZV2vjkSTGZ2Xdp5OlR4eIpr1eg1VLTSY11SVZ37/4DBAJ3tzpVjvO/hOxH3haYh2WzVOGwEKRwWAhSOCwEKRwWghQOC0EKh4UghcNCkMJhIUjhsBCkcFgIUjgsBCkcFoIUDgtBCoeFIIXDQpDCYSFI4fg3NvlmZsOMN0cAAAAASUVORK5CYII=;" vertex="1" parent="1">
          <mxGeometry x="610" y="800" width="104" height="81" as="geometry" />
        </mxCell>
        <mxCell id="InpOM2cUuAKNxlLhCf3V-12" value="" style="endArrow=classic;html=1;rounded=0;entryX=1;entryY=0.5;entryDx=0;entryDy=0;" edge="1" parent="1" source="InpOM2cUuAKNxlLhCf3V-5" target="InpOM2cUuAKNxlLhCf3V-10">
          <mxGeometry width="50" height="50" relative="1" as="geometry">
            <mxPoint x="500" y="1040" as="sourcePoint" />
            <mxPoint x="550" y="990" as="targetPoint" />
            <Array as="points">
              <mxPoint x="865" y="841" />
            </Array>
          </mxGeometry>
        </mxCell>
        <mxCell id="InpOM2cUuAKNxlLhCf3V-13" value="" style="endArrow=classic;startArrow=classic;html=1;rounded=0;entryX=1.002;entryY=0.785;entryDx=0;entryDy=0;entryPerimeter=0;" edge="1" parent="1" target="MV3zczWjzg_rHSTGy397-10">
          <mxGeometry width="50" height="50" relative="1" as="geometry">
            <mxPoint x="630.5" y="800" as="sourcePoint" />
            <mxPoint x="510" y="520" as="targetPoint" />
            <Array as="points">
              <mxPoint x="630" y="520" />
            </Array>
          </mxGeometry>
        </mxCell>
      </root>
    </mxGraphModel>
  </diagram>
</mxfile>
